<?xml version="1.0" encoding="UTF-8" standalone="no"?>
<!-- Created with Inkscape (http://www.inkscape.org/) -->

<svg
   width="108.75716mm"
   height="24.159595mm"
   viewBox="0 0 108.75717 24.159595"
   version="1.1"
   id="svg5"
   sodipodi:docname="logo.svg"
   inkscape:version="1.1.2 (0a00cf5339, 2022-02-04)"
   xmlns:inkscape="http://www.inkscape.org/namespaces/inkscape"
   xmlns:sodipodi="http://sodipodi.sourceforge.net/DTD/sodipodi-0.dtd"
   xmlns:xlink="http://www.w3.org/1999/xlink"
   xmlns="http://www.w3.org/2000/svg"
   xmlns:svg="http://www.w3.org/2000/svg">
  <sodipodi:namedview
     id="namedview79"
     pagecolor="#ffffff"
     bordercolor="#666666"
     borderopacity="1.0"
     inkscape:pageshadow="2"
     inkscape:pageopacity="0.0"
     inkscape:pagecheckerboard="0"
     inkscape:document-units="mm"
     showgrid="false"
     inkscape:zoom="2.2249785"
     inkscape:cx="177.30508"
     inkscape:cy="3.1460978"
     inkscape:window-width="1920"
     inkscape:window-height="947"
     inkscape:window-x="1920"
     inkscape:window-y="27"
     inkscape:window-maximized="1"
     inkscape:current-layer="svg5"
     width="110.49396mm"
     lock-margins="false"
     fit-margin-top="0"
     fit-margin-left="0"
     fit-margin-right="0"
     fit-margin-bottom="0">
    <inkscape:grid
       type="xygrid"
       id="grid47115"
       originx="3.6316051"
       originy="-1.1493359" />
  </sodipodi:namedview>
  <defs
     id="defs2">
    <linearGradient
       id="linearGradient754">
      <stop
         style="stop-color:#000000;stop-opacity:1"
         offset="0"
         id="stop750" />
      <stop
         style="stop-color:#000000;stop-opacity:1;"
         offset="0.39639869"
         id="stop5262" />
      <stop
         style="stop-color:#06b6d4;stop-opacity:1;"
         offset="0.39639869"
         id="stop5268" />
      <stop
         style="stop-color:#06b6d4;stop-opacity:1;"
         offset="0.60641921"
         id="stop824" />
      <stop
         style="stop-color:#22c55e;stop-opacity:1;"
         offset="0.60641921"
         id="stop826" />
      <stop
         style="stop-color:#22c55e;stop-opacity:1;"
         offset="0.80054075"
         id="stop822" />
      <stop
         style="stop-color:#ef4444;stop-opacity:1;"
         offset="0.80054075"
         id="stop828" />
      <stop
         style="stop-color:#ef4444;stop-opacity:1;"
         offset="1"
         id="stop830" />
      <stop
         style="stop-color:#ef4444;stop-opacity:1;"
         offset="1"
         id="stop752" />
    </linearGradient>
    <rect
       x="139.51498"
       y="151.03458"
       width="569.57953"
       height="286.70972"
       id="rect63" />
    <linearGradient
       xlink:href="#linearGradient754"
       id="linearGradient756"
       x1="376.07162"
       y1="238.97714"
       x2="376.07162"
       y2="175.26953"
       gradientUnits="userSpaceOnUse"
       spreadMethod="pad" />
    <linearGradient
       inkscape:collect="always"
       xlink:href="#linearGradient754"
       id="linearGradient46523"
       gradientUnits="userSpaceOnUse"
       x1="376.07162"
       y1="238.97714"
       x2="376.07162"
       y2="175.26953"
       spreadMethod="pad" />
    <linearGradient
       inkscape:collect="always"
       xlink:href="#linearGradient754"
       id="linearGradient46525"
       gradientUnits="userSpaceOnUse"
       x1="376.07162"
       y1="238.97714"
       x2="376.07162"
       y2="175.26953"
       spreadMethod="pad" />
    <linearGradient
       inkscape:collect="always"
       xlink:href="#linearGradient754"
       id="linearGradient46527"
       gradientUnits="userSpaceOnUse"
       x1="376.07162"
       y1="238.97714"
       x2="376.07162"
       y2="175.26953"
       spreadMethod="pad" />
    <linearGradient
       inkscape:collect="always"
       xlink:href="#linearGradient754"
       id="linearGradient46529"
       gradientUnits="userSpaceOnUse"
       x1="376.07162"
       y1="238.97714"
       x2="376.07162"
       y2="175.26953"
       spreadMethod="pad" />
    <linearGradient
       inkscape:collect="always"
       xlink:href="#linearGradient754"
       id="linearGradient46531"
       gradientUnits="userSpaceOnUse"
       x1="376.07162"
       y1="238.97714"
       x2="376.07162"
       y2="175.26953"
       spreadMethod="pad" />
    <linearGradient
       inkscape:collect="always"
       xlink:href="#linearGradient754"
       id="linearGradient46533"
       gradientUnits="userSpaceOnUse"
       x1="376.07162"
       y1="238.97714"
       x2="376.07162"
       y2="175.26953"
       spreadMethod="pad" />
  </defs>
  <g
     id="layer1"
     transform="matrix(0.90545863,0,0,0.90545863,-34.43832,-17.012711)">
    <g
       aria-label="SHELF"
       transform="matrix(0.264583,0,0,0.264583,-1.41148,-26.2021)"
       id="text61"
       style="font-size:133.333px;white-space:pre;shape-inside:url(#rect63);display:inline;fill:url(#linearGradient46533);stroke-width:1.00157">
      <path
         d="m 219.39823,174.86322 v 20.57286 q -8.00779,-3.58072 -15.62496,-5.40363 -7.61716,-1.82291 -14.38798,-1.82291 -8.98435,0 -13.28122,2.47395 -4.29686,2.47395 -4.29686,7.68227 0,3.90624 2.86458,6.11978 2.92968,2.14843 10.54684,3.71093 l 10.67706,2.14843 q 16.2109,3.2552 23.04682,9.89581 6.83592,6.64061 6.83592,18.88016 0,16.08069 -9.57029,23.95827 -9.50519,7.81248 -29.10149,7.81248 -9.24477,0 -18.55464,-1.75781 -9.30987,-1.75781 -18.61974,-5.20832 v -21.1588 q 9.30987,4.94791 17.9687,7.48696 8.72394,2.47395 16.79683,2.47395 8.20311,0 12.56507,-2.73436 4.36197,-2.73437 4.36197,-7.81248 0,-4.55728 -2.99478,-7.03124 -2.92968,-2.47395 -11.78383,-4.42707 l -9.70049,-2.14843 q -14.5833,-3.12499 -21.35411,-9.96091 -6.70572,-6.83592 -6.70572,-18.42443 0,-14.5182 9.37498,-22.33068 9.37498,-7.81248 26.95306,-7.81248 8.00779,0 16.47131,1.23698 8.46352,1.17187 17.51297,3.58072 z"
         style="font-weight:bold;font-family:'JetBrains Mono NL';-inkscape-font-specification:'JetBrains Mono NL Bold';fill:url(#linearGradient46523)"
         id="path42318" />
      <path
         d="m 247.78357,171.80333 h 25.06504 v 37.04418 h 36.97908 v -37.04418 h 25.06504 v 97.20027 h -25.06504 v -41.21083 h -36.97908 v 41.21083 h -25.06504 z"
         style="font-weight:bold;font-family:'JetBrains Mono NL';-inkscape-font-specification:'JetBrains Mono NL Bold';fill:url(#linearGradient46525)"
         id="path42320" />
      <path
         d="m 359.37183,171.80333 h 67.64306 v 18.94527 h -42.57802 v 18.09891 h 40.03896 v 18.94526 h -40.03896 v 22.26557 h 44.0103 v 18.94526 h -69.07534 z"
         style="font-weight:bold;font-family:'JetBrains Mono NL';-inkscape-font-specification:'JetBrains Mono NL Bold';fill:url(#linearGradient46527)"
         id="path42322" />
      <path
         d="m 450.45232,171.80333 h 25.06504 v 78.25501 h 44.0103 v 18.94526 h -69.07534 z"
         style="font-weight:bold;font-family:'JetBrains Mono NL';-inkscape-font-specification:'JetBrains Mono NL Bold';fill:url(#linearGradient46529)"
         id="path42324" />
      <path
         d="m 535.41304,171.80333 h 67.64306 v 18.94527 h -42.57802 v 18.09891 h 40.03896 v 18.94526 h -40.03896 v 41.21083 h -25.06504 z"
         style="font-weight:bold;font-family:'JetBrains Mono NL';-inkscape-font-specification:'JetBrains Mono NL Bold';fill:url(#linearGradient46531)"
         id="path42326" />
    </g>
  </g>
</svg>
